<svg width="59" height="59" viewBox="0 0 59 59" fill="none" xmlns="http://www.w3.org/2000/svg">
<path d="M21.8 28.675H35.55M28.675 35.55V21.8M57 57L51.5 51.5M28.125 54.25C31.5558 54.25 34.953 53.5743 38.1226 52.2614C41.2922 50.9484 44.1722 49.0241 46.5982 46.5982C49.0241 44.1722 50.9484 41.2922 52.2614 38.1226C53.5743 34.953 54.25 31.5558 54.25 28.125C54.25 24.6942 53.5743 21.297 52.2614 18.1274C50.9484 14.9578 49.0241 12.0778 46.5982 9.65184C44.1722 7.2259 41.2922 5.30155 38.1226 3.98865C34.953 2.67574 31.5558 2 28.125 2C21.1962 2 14.5512 4.75245 9.65183 9.65184C4.75245 14.5512 2 21.1962 2 28.125C2 35.0538 4.75245 41.6988 9.65183 46.5982C14.5512 51.4976 21.1962 54.25 28.125 54.25Z" stroke="white" stroke-width="2.5" stroke-linecap="round" stroke-linejoin="round"/>
</svg>
