<svg width="48" height="44" viewBox="0 0 48 44" fill="none" xmlns="http://www.w3.org/2000/svg">
<path d="M24 43.5555L7.02934 30.8911C3.67291 28.3863 1.38716 25.195 0.461143 21.7208C-0.464879 18.2466 0.0104183 14.6454 1.82693 11.3728C3.64344 8.10018 6.71958 5.30301 10.6664 3.33503C14.6131 1.36705 19.2533 0.31665 24 0.31665C28.7468 0.31665 33.3869 1.36705 37.3337 3.33503C41.2804 5.30301 44.3566 8.10018 46.1731 11.3728C47.9896 14.6454 48.4649 18.2466 47.5389 21.7208C46.6129 25.195 44.3271 28.3863 40.9707 30.8911L24 43.5555ZM37.2 28.0772C39.8104 26.129 41.588 23.6469 42.3081 20.9447C43.0282 18.2426 42.6585 15.4418 41.2456 12.8965C39.8327 10.3512 37.4401 8.17567 34.3705 6.64507C31.3008 5.11448 27.6918 4.29753 24 4.29753C20.3082 4.29753 16.6992 5.11448 13.6296 6.64507C10.5599 8.17567 8.16733 10.3512 6.75444 12.8965C5.34155 15.4418 4.97178 18.2426 5.69188 20.9447C6.41198 23.6469 8.18962 26.129 10.8 28.0772L24 37.9277L37.2 28.0772V28.0772ZM24 22.2066C22.5855 22.2066 21.229 21.7873 20.2288 21.0409C19.2286 20.2945 18.6667 19.2822 18.6667 18.2266C18.6667 17.171 19.2286 16.1587 20.2288 15.4123C21.229 14.6659 22.5855 14.2466 24 14.2466C25.4145 14.2466 26.7711 14.6659 27.7712 15.4123C28.7714 16.1587 29.3333 17.171 29.3333 18.2266C29.3333 19.2822 28.7714 20.2945 27.7712 21.0409C26.7711 21.7873 25.4145 22.2066 24 22.2066Z" fill="#FFC408"/>
</svg>
