<svg width="41" height="31" viewBox="0 0 41 31" fill="none" xmlns="http://www.w3.org/2000/svg">
<path d="M14.3235 12.9314C16.4348 15.6993 19.5064 17.9915 23.2155 19.567L25.2045 17.4884C25.5244 17.1541 25.9973 16.9189 26.5338 16.8274C27.0703 16.7358 27.6332 16.7941 28.116 16.9914C31.2982 18.2891 34.8125 19.0697 38.4278 19.2816C38.992 19.315 39.5187 19.5058 39.9027 19.8161C40.2868 20.1264 40.5001 20.5333 40.5 20.9556V28.4477C40.5001 28.8634 40.2936 29.2644 39.9203 29.573C39.5471 29.8816 39.0337 30.0759 38.4795 30.1183C37.287 30.2107 36.0855 30.256 34.875 30.256C15.615 30.256 0 18.6033 0 4.2304C0 3.32706 0.06075 2.43043 0.1845 1.54052C0.241323 1.12696 0.501715 0.743837 0.915277 0.465301C1.32884 0.186765 1.86616 0.0326253 2.42325 0.0327149H12.4627C13.0288 0.0326619 13.574 0.19181 13.9898 0.478426C14.4055 0.765042 14.6613 1.15807 14.706 1.57914C14.99 4.27706 16.0359 6.89959 17.775 9.27433C18.0393 9.6346 18.1175 10.0547 17.9947 10.455C17.872 10.8554 17.5569 11.2084 17.109 11.4471L14.3235 12.9314V12.9314ZM8.649 11.8282L12.924 9.5497C11.7108 7.59542 10.8795 5.52134 10.4557 3.39086H4.5225C4.509 3.66959 4.50225 3.94999 4.50225 4.2304C4.5 16.7496 18.099 26.8979 34.875 26.8979C35.2507 26.8979 35.6265 26.8928 36 26.8811V22.4534C33.1451 22.1371 30.3658 21.5168 27.747 20.6114L24.6938 23.8017C23.4645 23.4452 22.2705 23.0244 21.1208 22.5424L20.9903 22.487C16.5771 20.6126 12.9224 17.8853 10.4107 14.592L10.3365 14.4946C9.69054 13.6366 9.12664 12.7455 8.649 11.8282V11.8282Z" fill="#FFC408"/>
</svg>
