<svg width="54" height="36" viewBox="0 0 54 36" fill="none" xmlns="http://www.w3.org/2000/svg">
<path d="M3.5767e-06 11.976C-0.00140222 10.4083 0.411607 8.85574 1.21538 7.4073C2.01916 5.95886 3.19791 4.64297 4.68413 3.53497C6.17036 2.42698 7.93487 1.54865 9.87662 0.950278C11.8184 0.351907 13.8992 0.0452506 16 0.0478682H37.3333C46.168 0.0478682 53.3333 5.41095 53.3333 11.976V35.8681H16C7.16534 35.8681 3.5767e-06 30.505 3.5767e-06 23.94V11.976ZM48 31.8881V11.976C47.993 9.86759 46.8664 7.8472 44.8671 6.35744C42.8677 4.86767 40.1587 4.02999 37.3333 4.02789H16C14.5996 4.02527 13.2123 4.22898 11.9176 4.62734C10.6229 5.02569 9.44635 5.61086 8.45536 6.34927C7.46438 7.08769 6.67848 7.96483 6.14273 8.93039C5.60699 9.89595 5.33193 10.9309 5.33334 11.976V23.94C5.34039 26.0484 6.46697 28.0688 8.46629 29.5585C10.4656 31.0483 13.1747 31.886 16 31.8881H48ZM32 15.968H37.3333V19.948H32V15.968ZM16 15.968H21.3333V19.948H16V15.968Z" fill="#FFC408"/>
</svg>
